<?xml version="1.0" encoding="utf-8"?>
<!-- Generator: Adobe Illustrator 23.0.3, SVG Export Plug-In . SVG Version: 6.00 Build 0)  -->
<svg version="1.1" id="Layer_1" xmlns="http://www.w3.org/2000/svg" xmlns:xlink="http://www.w3.org/1999/xlink" x="0px" y="0px"
	 viewBox="0 0 794.4 318.1" style="enable-background:new 0 0 794.4 318.1;" xml:space="preserve">
<style type="text/css">
	.st0{fill:#FCBE4A;}
	.st1{fill:#F86549;}
</style>
<g>
	<path class="st0" d="M189.8,21.5c44.2,0,88.5,0,132.7,0c5.1,0,5.1,0,5.1,4.9c0,88.4,0,176.7,0,265.1c0,5.1,0,5.1-5.2,5.1
		c-85.4,0-170.7,0-256.1,0c-3.4,0-6.7-0.7-10.1-0.1c-2.7,0.4-3.5-1.3-3.5-3.9c0.1-16.2,0.1-32.5,0-48.7c-0.1-16.2-0.7-32.4-0.4-48.7
		c1-56.3,0.2-112.7,0.3-169c0-3.9,0.9-4.8,4.7-4.7C101.6,21.6,145.7,21.5,189.8,21.5z M290.1,236.3c0-2,0-4,0-6
		c0-5.8-3.1-7.8-8.2-5.2c-9.2,4.8-16.5,2.5-23-5.3c-3.6-4.3-3.5-14.4,0-18.8c6.1-7.8,13.5-9.5,22.8-5.3c5.2,2.3,8.2,0.3,8.4-5.2
		c0.4-12.8-2-25.3-2.6-38c-0.3-6.2,0.3-12.5-1.2-18.6c-0.6-2.7-1.1-5.4-0.7-8.1c0.2-1.6,0.7-3.3,3-2.2c7.4,3.7,14.6,4.1,22-0.4
		c6.7-4.1,9.5-10.4,9.1-17.2c-1.1-15.6-16.2-23.8-29.7-16.7c-1,0.5-2.2,1.3-3.1,0.6c-1.1-0.8-1.5-2.3-1.2-3.7
		c1.2-6.4,0.2-13,0.6-19.4c0.1-2.6-1.3-3.7-3.9-4c-5.9-0.6-11.8-1.5-17.7-2.1c-2-0.2-4-0.3-6-0.1c-4.6,0.5-7.1,5.3-5.5,10.7
		c1.3,4.6-0.2,10.4-3.2,13c-5.3,4.5-11.2,6.5-18.2,5.6c-4.4-0.5-8.2-4.4-6.9-8.2c1.1-3.4,2.1-7,4.2-10.1c3-4.4,0.9-10.2-4.1-12
		c-3-1.1-5.7,0.3-8.5,0.4c-8.1,0.3-16.2,0.8-24.2,1.7c-12.1,1.4-24.3,2-36.4,2.7c-4,0.2-4.8-0.9-4.7-4.8c0-1.8,0.6-3.4,1.3-5
		c1.1-2.5,2.3-4.9,3.3-7.5c2.2-5.8-1-12-7.1-12.6c-7.7-0.8-15.2-0.8-21.3,5.7c-4.4,4.7-6.6,11.2-4.4,16.6c2.3,5.4,0.8,7.6-5.2,7.6
		c-7.8-0.1-15.5-2.1-23.4-1.6c-2.8,0.2-4.3,1.3-4.6,3.8C89,74,88.8,81.6,89.1,89.2c0.2,4.8,4.4,7,9,5.5c2.9-1,5.4-3,8.6-3.3
		c6.3-0.7,15.9,5.6,16.2,13.6c0.2,6.3-1.6,11.9-7.1,14.8c-5,2.6-10.9,2.7-16.1-0.4c-2.4-1.4-4.7-1.5-7-0.4c-2.4,1.1-3.8,2.9-3.5,5.9
		c0.7,8.5,1,17.1,1.7,25.7c0.9,12.3,2,24.7,2.8,37c0.3,3.8-0.4,4-4.1,2.6c-8.1-3.1-16.1-2.3-22.2,3.5c-8.2,7.8-9.9,16.7-4.9,27.7
		c1.2,2.5,3.2,4.9,5.4,6.5c6.8,4.8,14.2,6.1,22.2,3c2.9-1.1,3.9-0.2,3.5,2.9c-0.8,5.8-0.7,11.6-0.7,17.4c0,5.1,1.7,6.1,6.8,6.8
		c6.9,0.9,13.9,1,20.7,2c7.8,1.2,12.3-3.7,10.9-11.9c-0.4-2.5-2.3-4.8-1.5-7.6c2.9-9.4,14.9-14.7,23.7-8.8c1.7,1.2,1.8,2.3,1,4.1
		c-1.7,3.6-3,7.4-4.7,10.9c-3,5.9,0.6,13.8,9.5,13.3c4.8-0.3,9.7-0.3,14.5-0.9c6.2-0.7,12.5-0.7,18.6-1.6c8.4-1.2,16.7-2.2,25.1-2.7
		c2.1-0.1,4.2-0.1,6.2-1.2c1.8-1,3.1,0.2,4.3,1.3c1.2,1.1,0.4,2.2-0.1,3.4c-1,2.7-1.6,5.5-3.2,7.9c-6.5,10.3,2.7,18.2,11.2,18.6
		c3.7,0.2,7.2-0.5,10.5-1.7c5.4-1.9,10.1-4.7,12.8-10.4c2-4.3,2.5-8.5,1.1-12.9c-0.8-2.6,0.6-5,2.7-4.5c6.4,1.5,13,0,19.2,1.9
		c3.5,1.1,7-1.2,7-4.8C289.4,247.1,290.4,241.7,290.1,236.3z"/>
	<path class="st1" d="M426.4,132.1c-4.6,8-9.2,16-14.2,24.6c-5-8.4-9.7-16.4-14.4-24.4c-0.4,0.1-0.7,0.3-1.1,0.4
		c0,4.8-0.1,9.6,0,14.4c0.1,5.4-0.4,10.7,0.3,16.1c0.3,2.1-0.6,3.1-3,3.1c-10.2-0.1-20.5-0.1-30.7,0c-2.3,0-2.8-0.9-2.7-2.9
		c0.1-4.7,0.1-9.5,0-14.2c-0.1-2.4,0.5-3.8,3.2-3.9c2.3-0.1,3-1.3,3-3.6c-0.1-7.7-0.1-15.5,0-23.2c0-2.5-0.6-3.9-3.2-3.9
		c-2.3,0-3-1-3-3.2c0.1-4.9,0.1-9.7,0-14.6c0-2.2,0.5-3.3,3.2-3.3c10.4,0.2,20.7,0.1,31.1,0c1.7,0,2.5,0.6,3.3,2.2
		c3.9,7.7,8.2,15.4,12.2,23c1.3,2.4,2.4,2.2,3.5,0c3.7-6.9,7.5-13.7,11.1-20.7c1.6-3.3,3.6-4.7,7.5-4.6c9,0.3,18,0.3,27,0
		c3.4-0.1,4.3,1.1,4.1,4.3c-0.2,4.5-0.1,9,0,13.5c0,2.1-0.5,3.4-2.8,3.3c-2.8-0.1-3.3,1.6-3.3,3.9c0,7.9,0.1,15.7,0,23.6
		c0,2.1,1,3.2,2.8,3.2c3,0,3.4,1.6,3.4,4c-0.1,4.6-0.1,9.2,0,13.8c0.1,2.5-0.8,3.2-3.2,3.2c-10-0.1-20-0.1-30,0c-2.7,0-3-1.2-3-3.4
		c0.1-10.1,0-20.2,0-30.3C427,132.4,426.7,132.2,426.4,132.1z"/>
	<path class="st1" d="M601.1,135c-3.2,5.3-6.3,10.6-9.4,15.9c-3.9,6.6-3.9,6.6-7.7,0.1c-3.2-5.3-6.4-10.6-10.5-15.8
		c0,3.5,0,7.1,0,10.6c0,5.6-0.1,11.3,0,16.9c0.1,2.7-0.7,3.7-3.6,3.7c-9.1-0.2-18.2-0.2-27.4,0c-2.6,0-3.6-0.8-3.5-3.4
		c0.1-4,0.2-8,0-12c-0.1-2.4,0.8-3.6,3-3.7c2.6-0.1,3.1-1.5,3.1-3.9c-0.1-7-0.1-14,0-21c0-2-0.2-3.4-2.6-3.5
		c-2.5-0.2-3.6-1.6-3.5-4.3c0.2-3.9,0.1-7.7,0.1-11.6c0-2.4,1-3.3,3.4-3.3c9.6,0.1,19.2,0.1,28.9,0.1c1.4,0,2.3,0.4,3,1.7
		c3.9,7,7.8,13.9,11.7,20.8c0.5,0.8,0.6,2.2,1.8,2c1.1-0.1,1.4-1.3,1.9-2.1c3.7-6.7,7.5-13.5,11.2-20.2c0.8-1.5,1.8-2.3,3.7-2.3
		c9.4,0.2,18.7,0.2,28.1,0.1c2.5,0,3.3,0.8,3.2,3.2c-0.1,4,0,8,0.2,12c0.1,2.4-0.6,3.9-3.1,4c-1.9,0.1-2.5,0.9-2.5,2.8
		c0.1,7.5,0.1,15,0,22.5c0,1.9,0.5,2.9,2.4,3c2.6,0.1,3.2,1.6,3.1,4c-0.2,4-0.2,8,0,12c0.1,2.4-0.7,3.3-3.2,3.2
		c-9.4-0.1-18.7-0.1-28.1,0c-2.3,0-2.7-0.8-2.7-2.8c0.1-9.4,0-18.7,0-28.1C601.7,135.2,601.4,135.1,601.1,135z"/>
	<path class="st1" d="M625.3,180c7.3,0.4,16.4-1.3,25.3,0.6c15.2,3.2,25.1,12.9,25.7,29.4c0.4,10.1-1.4,19.4-9.3,26.5
		c-6.6,5.9-14.7,8-23.2,9.1c-14.9,1.9-29.9,0.5-44.9,0.9c-1.6,0-2.2-0.6-2.2-2.2c0.1-4.7,0.1-9.5,0-14.2c-0.1-2.4,1.6-2.8,3.1-2.9
		c2.4-0.2,2.8-1.6,2.8-3.5c0-7,0-14,0-21c0-2.9-0.3-5.5-4.1-5.6c-1.6,0-1.7-1.1-1.7-2.3c0-4.1,0.1-8.2,0-12.4
		c-0.1-2.7,1.7-2.3,3.3-2.3C608,180,615.8,180,625.3,180z M630.7,212.4C630.7,212.4,630.8,212.4,630.7,212.4c0,1.7,0.1,3.5,0,5.2
		c-0.3,10.3,1,11.2,11,8.4c0.2-0.1,0.5-0.2,0.7-0.3c3.1-1.1,4.9-3.2,5.3-6.5c0.5-4,0.2-7.9,0.1-11.9c-0.2-5.5-2.4-8.1-8-9
		c-1.8-0.3-3.7-0.3-5.6-0.5c-2.9-0.4-3.7,1.2-3.6,3.7C630.8,205.1,630.7,208.8,630.7,212.4z"/>
	<path class="st1" d="M545.2,180.1c8,0.3,19.1-0.7,29.9,2.2c6.7,1.8,12.2,5.4,13.3,12.6c1.3,8.2,0.7,16.4-8,21.2
		c-1.6,0.9-4.4,0.6-4.4,2.7c-0.1,2.2,1.9,3.9,3.3,5.6c1.8,2.2,3.3,4.8,5.4,6.6c4.3,3.7,4.1,8.5,4.1,13.3c0,1.9-0.8,2.3-2.4,2.3
		c-7.7-0.1-15.5-0.1-23.2,0c-1.9,0-2.9-0.7-3.7-2.4c-3.1-6.1-6.1-12.2-7.8-18.9c-0.2-0.9-0.3-2.7-1.7-2.4c-1.3,0.3-0.9,1.9-0.9,3
		c0,5.9-0.1,11.7,0,17.6c0.1,2.5-0.9,3.2-3.3,3.1c-9.1-0.1-18.2-0.1-27.4,0c-2.7,0-3.4-1-3.3-3.5c0.2-4.1,0.1-8.2,0-12.4
		c-0.1-2,0.6-3.2,2.6-3.3c2.5-0.1,3-1.7,3-3.7c0-7.2-0.1-14.5,0-21.7c0-2.2-1-2.9-2.8-3c-2.2-0.2-2.9-1.4-2.8-3.5c0.1-4,0.2-8,0-12
		c-0.1-2.6,0.8-3.5,3.4-3.5C526.3,180.1,534.3,180.1,545.2,180.1z M548.9,201.3C548.9,201.3,548.8,201.3,548.9,201.3
		c-0.1,1.7,0.1,3.5-0.1,5.2c-0.3,2.7,0.8,3.5,3.4,3.4c8.9-0.3,9.3-6.8,7.4-13.4c-0.8-3-5.5-4.8-9-3.9c-3,0.8-1.2,3.5-1.7,5.3
		C548.7,199,548.9,200.2,548.9,201.3z"/>
	<path class="st1" d="M682.7,167.1c-11.2-0.2-22.1-1.7-30.6-10.2c-5.6-5.6-8.3-12.6-8.8-20.4c-0.6-9.3,0.2-18.2,6.4-25.8
		c3.4-4.2,7.6-7.3,12.5-9c15.8-5.6,31.5-5.5,46.5,2.9c8,4.5,12.2,11.8,13.3,20.8c0.9,7.3,0.8,14.6-2.1,21.7
		c-4.2,10.2-12,15.9-22.3,18.6C692.8,166.9,687.8,167.4,682.7,167.1z M694.2,132.5c0.1,0,0.2,0,0.2,0c-0.1-1.6,0-3.3-0.3-4.8
		c-1-6.5-4-9.3-10.6-9.8c-5.5-0.5-10,2.2-11.4,7.4c-1.2,4.5-0.9,9.1,0,13.6c0.4,2,1.3,4.3,2.9,5.4c4.1,2.6,8.6,3.3,13.2,1.3
		c4.1-1.9,5.5-5.5,5.9-9.7C694.3,134.8,694.2,133.7,694.2,132.5z"/>
	<path class="st1" d="M470.9,180.1c5.2,0,10.5,0,15.7,0c1.8,0,2.7,0.5,3.3,2.6c3.7,12.9,7.8,25.7,11.6,38.5c0.5,1.5,0.9,2.9,2.8,2.9
		c2.9,0,3.4,1.7,3.3,4.2c-0.1,5-0.1,10,0,15c0,2.3-0.5,3.3-3.1,3.3c-6.6-0.2-13.2-0.1-19.8,0c-1.7,0-2.7-0.2-2.7-2.4
		c-0.1-2.2-1-4.3-1.3-6.6c-0.3-1.9-1.3-2.5-3.1-2.4c-4.6,0-9.2,0.1-13.9,0c-1.9,0-2.6,0.8-2.9,2.5c-0.5,2.9-0.1,6.9-2.4,8.3
		c-2.2,1.3-5.8,0.5-8.8,0.5c-4.2,0-8.5-0.1-12.7,0c-1.9,0-2.9-0.3-2.9-2.6c0.1-5.5,0-11-0.1-16.5c0-1.9,0.5-3.3,2.5-3.3
		c2.8,0,3.4-1.9,4-4c3.6-12.4,7.5-24.7,11-37c0.7-2.4,1.8-3.2,4.1-3.1C460.6,180.1,465.8,180.1,470.9,180.1
		C470.9,180.1,470.9,180.1,470.9,180.1z M471.2,195.8c-0.3,0-0.6,0-0.9,0c-1.4,5.4-2.8,10.7-4.1,16.1c-2.3,9-2.3,9,7,8.8
		c0.6,0,1.2-0.2,1.9-0.2c1.5-0.1,1.9-0.9,1.6-2.3C474.8,210.7,473,203.3,471.2,195.8z"/>
	<path class="st1" d="M502.1,166.2c-8.6,0-17.2-0.1-25.9,0.1c-2.4,0-3.3-0.6-3.2-3.1c0.2-4.1,0.2-8.2,0-12.4c-0.1-2.3,0.6-3.6,3-3.7
		c2.7-0.1,3.1-1.7,3.1-4c-0.1-6.7-0.1-13.5,0-20.2c0.1-2.5-0.4-4.1-3.3-4.2c-2.2,0-2.8-1.3-2.7-3.5c0.2-4.2,0.2-8.5,0-12.7
		c-0.1-2.4,0.8-3,3-3c17.6,0,35.2,0.1,52.8,0c2.2,0,2.8,0.9,2.7,2.9c-0.1,5,0,10,0,15c0,6.8-2.3,8.1-8.5,5
		c-3.6-1.8-7.3-3.2-11.3-3.4c-4.7-0.3-4.7-0.3-4.7,4.3c0,1,0,2-0.1,3c-0.1,2.3,1.1,2.9,3.1,2.4c2.7-0.6,5.3-1.3,8-1.9
		c1.6-0.4,2.3,0.1,2.3,1.8c0,2.9,0,5.7,0,8.6c0,1.5-0.5,2.3-2.3,1.8c-2.6-0.8-5.3-1.2-8-1.8c-1.7-0.4-2.9-0.1-2.9,2.1
		c0.1,2-0.2,4-0.2,6c0,2.5,2,2.3,3.5,2.1c4.5-0.5,8.8-1.7,12.7-3.9c1.1-0.6,2.2-1.1,3.5-1.2c4.5-0.3,4.9-0.1,4.9,4.5
		c0,5.4-0.1,10.7,0.1,16.1c0.1,2.6-0.6,3.4-3.3,3.4C519.6,166.1,510.8,166.2,502.1,166.2z"/>
	<path class="st1" d="M711.1,247.2c-7.8,0.2-15.4-0.4-22.8-3.2c-2.5-1-3.4-2.4-3.5-4.6c-0.2-3.4-0.1-6.7,0-10.1
		c0-2.3,1.1-3.4,3.5-3.1c1.5,0.2,3,0.2,4.5,0c3.2-0.3,6.1,0.1,8.2,3c1.5,2,3.9,2.6,6.3,2.9c3.6,0.4,6.1-1.5,6.5-5.1
		c0.2-1.8,0-2.9-2.3-3.2c-5.7-0.7-11.3-1.7-16.6-4.1c-9-4.2-13-12-11.7-22.8c1-7.9,8.3-15.4,16.5-17.2c11.2-2.4,22.3-1.7,33.3,0.9
		c5.7,1.3,7,3.2,7.1,9.2c0.1,10.2,0.1,10.1-10.1,10.2c-2.6,0-4.6-0.2-6.3-2.8c-1.2-1.8-3.2-3.3-5.9-3.4c-4.6-0.3-7.8,2.8-7,7.3
		c0.4,2.4,2.5,1.7,3.9,1.8c5.9,0.3,11.5,1.4,16.9,4c8.5,4.1,10.7,11.4,10.5,19.8c-0.4,12.8-9.9,19.4-23.1,20.5
		C716.3,247.4,713.7,247.2,711.1,247.2z"/>
	<path class="st1" d="M426.8,193.7c0,2.7-0.1,5.5,0,8.2c0.1,2-0.7,2.6-2.6,2.5c-2.6-0.1-5.2-0.1-7.8,0c-1.6,0-2.8-0.5-3.9-1.8
		c-3.9-4.8-9.2-5.6-14.5-3.6c-5.6,2-8,6.9-8.1,12.7c-0.3,11.5,7.2,17.3,19.8,15c4.8-0.9,9.5-1.9,14.2-3.1c2.2-0.6,3,0,3,2.2
		c0,4.7,0.1,9.5,0.1,14.2c0,2-0.8,3.2-3.1,3.8c-13.5,3.7-27,5-40.6,1.1c-12.2-3.5-19.8-13.5-21.3-26.1c-1-8-0.6-15.6,2.7-23
		c3.6-8,10-12.9,18-15.1c13.8-3.9,27.6-3.4,41.1,1.6c2.3,0.8,3.2,2,3,4.3C426.6,189,426.7,191.4,426.8,193.7z"/>
	<path class="st1" d="M290.1,236.3c0.3,5.4-0.6,10.7-0.7,16.1c-0.1,3.6-3.6,5.8-7,4.8c-6.3-1.9-12.9-0.4-19.2-1.9
		c-2.1-0.5-3.6,1.9-2.7,4.5c1.4,4.5,0.9,8.6-1.1,12.9c-2.6,5.7-7.3,8.5-12.8,10.4c-3.3,1.2-6.8,1.9-10.5,1.7
		c-8.5-0.4-17.7-8.3-11.2-18.6c1.6-2.5,2.1-5.3,3.2-7.9c0.5-1.2,1.3-2.3,0.1-3.4c-1.2-1.1-2.6-2.3-4.3-1.3c-2,1.1-4.1,1-6.2,1.2
		c-8.4,0.5-16.8,1.5-25.1,2.7c-6.1,0.9-12.4,0.9-18.6,1.6c-4.8,0.6-9.7,0.6-14.5,0.9c-8.9,0.5-12.5-7.4-9.5-13.3
		c1.8-3.5,3.1-7.3,4.7-10.9c0.8-1.8,0.8-2.9-1-4.1c-8.8-5.9-20.8-0.6-23.7,8.8c-0.9,2.8,1,5,1.5,7.6c1.4,8.1-3.2,13-10.9,11.9
		c-6.9-1-13.8-1.1-20.7-2c-5.1-0.7-6.7-1.7-6.8-6.8c0-5.8-0.1-11.6,0.7-17.4c0.4-3-0.7-3.9-3.5-2.9c-8,3.1-15.4,1.7-22.2-3
		c-2.2-1.6-4.3-4-5.4-6.5c-5.1-10.9-3.4-19.9,4.9-27.7c6.2-5.8,14.2-6.7,22.2-3.5c3.7,1.4,4.4,1.3,4.1-2.6
		c-0.9-12.3-1.9-24.7-2.8-37c-0.6-8.6-1-17.1-1.7-25.7c-0.2-3,1.1-4.7,3.5-5.9c2.4-1.1,4.6-1.1,7,0.4c5.2,3.1,11.1,3,16.1,0.4
		c5.5-2.8,7.4-8.5,7.1-14.8c-0.3-8-10-14.3-16.2-13.6c-3.2,0.3-5.6,2.4-8.6,3.3c-4.5,1.5-8.8-0.7-9-5.5C88.8,81.6,89,74,89.9,66.4
		c0.3-2.5,1.8-3.6,4.6-3.8c7.9-0.5,15.6,1.6,23.4,1.6c5.9,0,7.4-2.1,5.2-7.6c-2.2-5.4,0-11.9,4.4-16.6c6.1-6.4,13.6-6.5,21.3-5.7
		c6,0.6,9.3,6.8,7.1,12.6c-1,2.5-2.2,5-3.3,7.5c-0.7,1.6-1.3,3.2-1.3,5c-0.1,3.9,0.8,5,4.7,4.8c12.2-0.7,24.3-1.3,36.4-2.7
		c8-0.9,16.1-1.4,24.2-1.7c2.8-0.1,5.5-1.5,8.5-0.4c4.9,1.8,7.1,7.6,4.1,12c-2.1,3.1-3.1,6.7-4.2,10.1c-1.3,3.8,2.5,7.7,6.9,8.2
		c7,0.9,12.9-1.1,18.2-5.6c3-2.6,4.5-8.4,3.2-13c-1.6-5.3,0.9-10.2,5.5-10.7c2-0.2,4-0.1,6,0.1c5.9,0.6,11.8,1.5,17.7,2.1
		c2.6,0.3,4,1.4,3.9,4c-0.4,6.5,0.6,13-0.6,19.4c-0.3,1.4,0.1,2.9,1.2,3.7c1,0.7,2.1,0,3.1-0.6c13.5-7.1,28.6,1.1,29.7,16.7
		c0.5,6.8-2.4,13.1-9.1,17.2c-7.5,4.6-14.6,4.2-22,0.4c-2.4-1.2-2.8,0.5-3,2.2c-0.4,2.8,0.1,5.5,0.7,8.1c1.4,6.1,0.9,12.4,1.2,18.6
		c0.6,12.7,3,25.3,2.6,38c-0.2,5.6-3.2,7.5-8.4,5.2c-9.4-4.2-16.7-2.5-22.8,5.3c-3.5,4.4-3.6,14.5,0,18.8c6.4,7.8,13.7,10.1,23,5.3
		c5.1-2.7,8.2-0.6,8.2,5.2C290.1,232.4,290.1,234.4,290.1,236.3z M142.8,164c-3.2,0-6.5,0-9.7,0c-9.5,0-19-0.1-28.5-0.1
		c-1.6,0-4-0.3-3.8,2.2c0.5,6.2-0.1,12.4,1.5,18.6c0.7,2.6,0.5,5.5,0.2,8.2c-1.1,7.7-7.3,9.9-15.8,5.8c-3.6-1.7-7.6-1.9-10.8-0.1
		c-6.6,3.6-8.3,8-6.9,16c0.8,4.7,7.2,9.2,12.7,8.9c3.1-0.2,5.8-1.2,8.5-2.4c6.5-3,11.7,0.3,11.7,7.5c0,5.7,0.1,11.5-0.1,17.2
		c-0.1,2.4,0.7,3.6,3.2,4c4.8,0.9,9.7,0.2,14.5,1.1c3.2,0.6,3-2,2.3-3.9c-1.2-3.7-1.1-7.3,0.2-10.9c2.7-7.2,8.1-11.8,15-14.1
		c5.2-1.7,10.7-2,16.3-0.3c5.9,1.8,9.5,5.6,10,11.8c0.4,5.4-3,9.4-4.6,14c-1.1,3.1-1,4,2.4,3.6c6.7-0.7,13.5-0.2,20.3-1.8
		c3.1-0.7,3.7-1.7,3.7-4.5c-0.1-23.7-0.1-47.5,0-71.2c0-1.2,0-2.5,0.2-3.7c0.8-4.6,0-5.7-4.6-5.7C168,164,155.4,164,142.8,164z
		 M196.3,111.5c0,11.6,0,23.2,0,34.8c0,6.8,0,6.8,6.8,6.5c0.5,0,1,0,1.5,0c23.2,0,46.5,0,69.7,0c2.8,0,3.9-0.6,3.8-3.7
		c-0.2-6.7-0.4-13.4-1.5-20.1c-1.1-6.8,1.3-10.9,7-14.1c4.2-2.4,7.7-0.3,11.2,1.4c4,1.9,7.7,2,11.3-0.8c3.7-2.9,6-6.5,4.5-11.3
		c-2.6-8.6-10.2-10.4-17.1-6.5c-7.7,4.3-15.8,0.6-16.2-8.2c-0.2-4.8-0.4-9.7,0.5-14.6c0.5-2.7-0.2-4.3-3.2-4.4
		c-3.5-0.1-7-0.2-10.5-0.3c-1.5,0-2.2,0.8-1.7,2.1c1.1,2.7,0.1,5.2-0.6,7.6c-2.5,8.4-8.3,13.5-16.3,17c-7.7,3.4-14.8,2-21.8-0.7
		c-8.2-3.2-10.7-16.1-4.8-23.6c0.7-0.9,1.6-1.6,1-2.8c-0.5-1.1-1.6-1-2.6-1c-5.6-0.4-11.2,0.6-16.8,0.8c-3.2,0.1-4.5,1.6-4.4,5.2
		C196.4,87,196.3,99.2,196.3,111.5z"/>
	<path class="st0" d="M142.8,164c12.6,0,25.2,0,37.8,0c4.6,0,5.3,1,4.6,5.7c-0.2,1.2-0.2,2.5-0.2,3.7c0,23.7,0,47.5,0,71.2
		c0,2.8-0.6,3.8-3.7,4.5c-6.7,1.6-13.5,1.1-20.3,1.8c-3.4,0.4-3.5-0.4-2.4-3.6c1.6-4.6,5.1-8.5,4.6-14c-0.5-6.1-4.2-10-10-11.8
		c-5.6-1.7-11.1-1.4-16.3,0.3c-7,2.3-12.4,6.9-15,14.1c-1.3,3.6-1.5,7.2-0.2,10.9c0.7,1.9,0.8,4.6-2.3,3.9
		c-4.8-0.9-9.7-0.3-14.5-1.1c-2.5-0.5-3.3-1.6-3.2-4c0.1-5.7,0.1-11.5,0.1-17.2c0-7.3-5.2-10.5-11.7-7.5c-2.7,1.2-5.4,2.2-8.5,2.4
		c-5.5,0.3-11.9-4.2-12.7-8.9c-1.4-7.9,0.3-12.3,6.9-16c3.2-1.8,7.2-1.6,10.8,0.1c8.5,4.1,14.7,1.9,15.8-5.8
		c0.4-2.7,0.5-5.6-0.2-8.2c-1.6-6.1-0.9-12.4-1.5-18.6c-0.2-2.5,2.2-2.2,3.8-2.2c9.5,0,19,0,28.5,0.1C136.3,164,139.6,164,142.8,164
		z"/>
	<path class="st0" d="M196.3,111.5c0-12.2,0.2-24.5-0.1-36.7c-0.1-3.6,1.2-5.1,4.4-5.2c5.6-0.2,11.1-1.2,16.8-0.8
		c1,0.1,2.1-0.1,2.6,1c0.6,1.3-0.3,1.9-1,2.8c-5.9,7.4-3.4,20.4,4.8,23.6c7.1,2.7,14.2,4.1,21.8,0.7c8-3.5,13.8-8.6,16.3-17
		c0.7-2.4,1.8-4.9,0.6-7.6c-0.5-1.3,0.2-2.2,1.7-2.1c3.5,0.1,7,0.2,10.5,0.3c3,0.1,3.7,1.7,3.2,4.4c-0.8,4.8-0.7,9.7-0.5,14.6
		c0.4,8.8,8.5,12.5,16.2,8.2c6.9-3.8,14.6-2,17.1,6.5c1.5,4.8-0.8,8.4-4.5,11.3c-3.6,2.8-7.3,2.7-11.3,0.8
		c-3.5-1.7-6.9-3.7-11.2-1.4c-5.8,3.2-8.1,7.2-7,14.1c1.1,6.7,1.3,13.4,1.5,20.1c0.1,3.1-1,3.7-3.8,3.7c-23.2-0.1-46.5,0-69.7,0
		c-0.5,0-1,0-1.5,0c-6.8,0.2-6.8,0.2-6.8-6.5C196.3,134.7,196.3,123.1,196.3,111.5z"/>
</g>
</svg>
