<svg width="304" height="122" viewBox="0 0 304 122" fill="none" xmlns="http://www.w3.org/2000/svg">
<path d="M72.6324 8.24583C89.5468 8.24583 106.499 8.24583 123.414 8.24583C125.366 8.24583 125.366 8.24583 125.366 10.1251C125.366 44.0289 125.366 77.8944 125.366 111.798C125.366 113.754 125.366 113.754 123.376 113.754C90.6948 113.754 58.0524 113.754 25.3716 113.754C24.0705 113.754 22.8076 113.486 21.5065 113.716C20.4733 113.869 20.1672 113.217 20.1672 112.22C20.2054 106.007 20.2054 99.7554 20.1672 93.5423C20.1289 87.3291 19.8993 81.116 20.0141 74.8645C20.3968 53.2719 20.0906 31.641 20.1289 10.0484C20.1289 8.55265 20.4733 8.20748 21.9275 8.24583C38.8801 8.28418 55.7563 8.24583 72.6324 8.24583ZM111.015 90.6275C111.015 89.8604 111.015 89.0934 111.015 88.3263C111.015 86.1018 109.829 85.3348 107.877 86.332C104.356 88.1729 101.563 87.2908 99.0755 84.2993C97.6979 82.6501 97.7361 78.7765 99.0755 77.089C101.41 74.0974 104.242 73.4454 107.801 75.0563C109.791 75.9384 110.939 75.1713 111.015 73.0619C111.168 68.1528 110.25 63.3587 110.02 58.4879C109.905 56.11 110.135 53.6938 109.561 51.3543C109.331 50.3188 109.14 49.2832 109.293 48.2477C109.37 47.6341 109.561 46.9821 110.441 47.404C113.273 48.823 116.028 48.9764 118.86 47.2505C121.424 45.6781 122.495 43.2619 122.342 40.6539C121.921 34.6709 116.143 31.5259 110.977 34.249C110.594 34.4407 110.135 34.7476 109.791 34.4791C109.37 34.1723 109.216 33.597 109.331 33.06C109.791 30.6055 109.408 28.0742 109.561 25.6196C109.599 24.6224 109.063 24.2006 108.068 24.0855C105.811 23.8554 103.553 23.5102 101.295 23.2801C100.53 23.2034 99.7643 23.165 98.999 23.2417C97.2387 23.4335 96.282 25.2744 96.8942 27.3455C97.3917 29.1097 96.8177 31.3342 95.6697 32.3313C93.6415 34.0572 91.3837 34.8243 88.7049 34.4791C87.0211 34.2873 85.5669 32.7916 86.0644 31.3342C86.4854 30.0302 86.8681 28.6495 87.6717 27.4605C88.8197 25.773 88.0161 23.5486 86.1027 22.8582C84.9547 22.4363 83.9214 22.9733 82.8499 23.0116C79.7502 23.1267 76.6505 23.3184 73.5891 23.6636C68.9587 24.2006 64.29 24.4307 59.6596 24.6991C58.1289 24.7759 57.8227 24.354 57.861 22.8582C57.861 22.1679 58.0906 21.5542 58.3585 20.9406C58.7794 19.9818 59.2387 19.0613 59.6213 18.0641C60.4632 15.8397 59.2387 13.4618 56.9043 13.2317C53.9577 12.9249 51.0876 12.9249 48.7533 15.4178C47.0695 17.2204 46.2276 19.7133 47.0695 21.7843C47.9496 23.8554 47.3756 24.6991 45.0795 24.6991C42.0946 24.6608 39.148 23.8937 36.1249 24.0855C35.0534 24.1622 34.4793 24.5841 34.3645 25.5429C34.0584 28.381 33.9819 31.2958 34.0967 34.2106C34.1732 36.0515 35.7804 36.8953 37.5408 36.32C38.6505 35.9365 39.6072 35.1694 40.8318 35.0544C43.2427 34.7859 46.9164 37.2021 47.0312 40.2703C47.1077 42.6866 46.4189 44.8343 44.3142 45.9466C42.4008 46.9437 40.143 46.9821 38.1531 45.7931C37.2346 45.2562 36.3545 45.2178 35.4743 45.6397C34.5559 46.0616 34.0201 46.752 34.1349 47.9025C34.4028 51.1625 34.5176 54.4609 34.7855 57.7592C35.1299 62.4766 35.5508 67.2323 35.857 71.9497C35.9718 73.4071 35.7039 73.4838 34.288 72.9469C31.1883 71.7579 28.1269 72.0647 25.7925 74.2892C22.6546 77.2807 22.004 80.6941 23.9174 84.9129C24.3766 85.8717 25.142 86.7922 25.9839 87.4058C28.5861 89.2468 31.4179 89.7453 34.4793 88.5564C35.5891 88.1345 35.9718 88.4797 35.8187 89.6686C35.5126 91.8931 35.5508 94.1176 35.5508 96.342C35.5508 98.298 36.2014 98.6815 38.1531 98.95C40.7935 99.2952 43.4723 99.3335 46.0745 99.7171C49.0594 100.177 50.7815 98.298 50.2457 95.1531C50.0926 94.1943 49.3655 93.3121 49.6717 92.2383C50.7815 88.6331 55.3736 86.6004 58.7412 88.8632C59.3917 89.3235 59.43 89.7454 59.1238 90.4357C58.4733 91.8164 57.9758 93.2738 57.3253 94.6161C56.1772 96.879 57.5549 99.9088 60.9607 99.7171C62.7976 99.602 64.6727 99.602 66.5095 99.3719C68.8822 99.1034 71.293 99.1034 73.6274 98.7582C76.8419 98.298 80.0181 97.9145 83.2326 97.7227C84.0362 97.6844 84.8399 97.6844 85.6052 97.2625C86.294 96.879 86.7915 97.3392 87.2507 97.7611C87.71 98.1829 87.4038 98.6048 87.2125 99.0651C86.8298 100.101 86.6002 101.174 85.9879 102.095C83.5005 106.045 87.0211 109.075 90.2739 109.229C91.6898 109.305 93.0292 109.037 94.292 108.577C96.3585 107.848 98.1571 106.774 99.1903 104.588C99.9557 102.939 100.147 101.328 99.6113 99.6403C99.3051 98.6432 99.8409 97.7227 100.644 97.9145C103.094 98.4898 105.619 97.9145 107.992 98.6432C109.331 99.0651 110.671 98.1829 110.671 96.8022C110.747 94.7696 111.13 92.6985 111.015 90.6275Z" fill="#FCBE4A"/>
<path d="M163.174 50.6639C161.414 53.7322 159.654 56.8004 157.74 60.0987C155.827 56.8771 154.028 53.8089 152.23 50.7406C152.076 50.779 151.962 50.8557 151.809 50.8941C151.809 52.735 151.77 54.5759 151.809 56.4169C151.847 58.4879 151.656 60.5206 151.923 62.5916C152.038 63.397 151.694 63.7806 150.775 63.7806C146.872 63.7422 142.93 63.7422 139.027 63.7806C138.147 63.7806 137.956 63.4354 137.994 62.6683C138.032 60.8658 138.032 59.0248 137.994 57.2223C137.956 56.3018 138.185 55.7649 139.218 55.7265C140.099 55.6881 140.367 55.2279 140.367 54.3458C140.328 51.3926 140.328 48.4011 140.367 45.448C140.367 44.4892 140.137 43.9522 139.142 43.9522C138.262 43.9522 137.994 43.5687 137.994 42.7249C138.032 40.8456 138.032 39.0047 137.994 37.1254C137.994 36.2817 138.185 35.8598 139.218 35.8598C143.198 35.9365 147.14 35.8981 151.12 35.8598C151.77 35.8598 152.077 36.0899 152.383 36.7036C153.875 39.6567 155.521 42.6099 157.051 45.5247C157.549 46.4451 157.97 46.3684 158.391 45.5247C159.807 42.8783 161.261 40.2704 162.638 37.5857C163.251 36.32 164.016 35.7831 165.509 35.8214C168.953 35.9365 172.397 35.9365 175.841 35.8214C177.142 35.7831 177.486 36.2433 177.41 37.4706C177.333 39.1965 177.372 40.9224 177.41 42.6482C177.41 43.4536 177.218 43.9522 176.338 43.9139C175.267 43.8755 175.075 44.5275 175.075 45.4096C175.075 48.4395 175.114 51.431 175.075 54.4609C175.075 55.2663 175.458 55.6881 176.147 55.6881C177.295 55.6881 177.448 56.3018 177.448 57.2223C177.41 58.9865 177.41 60.7507 177.448 62.5149C177.486 63.4737 177.142 63.7422 176.224 63.7422C172.397 63.7039 168.57 63.7039 164.743 63.7422C163.71 63.7422 163.595 63.282 163.595 62.4382C163.633 58.5646 163.595 54.691 163.595 50.8174C163.404 50.779 163.289 50.7023 163.174 50.6639Z" fill="#F86549"/>
<path d="M230.028 51.7762C228.804 53.8088 227.617 55.8415 226.431 57.8742C224.939 60.4055 224.939 60.4055 223.484 57.9126C222.26 55.8799 221.035 53.8472 219.466 51.8529C219.466 53.1952 219.466 54.5759 219.466 55.9182C219.466 58.066 219.428 60.2521 219.466 62.3999C219.505 63.4354 219.198 63.8189 218.089 63.8189C214.606 63.7422 211.124 63.7422 207.603 63.8189C206.608 63.8189 206.226 63.5121 206.264 62.5149C206.302 60.9808 206.34 59.4467 206.264 57.9126C206.226 56.9921 206.57 56.5319 207.412 56.4935C208.407 56.4552 208.598 55.9182 208.598 54.9978C208.56 52.3131 208.56 49.6284 208.598 46.9437C208.598 46.1767 208.522 45.6397 207.603 45.6014C206.647 45.5247 206.226 44.9877 206.264 43.9522C206.34 42.4564 206.302 40.999 206.302 39.5033C206.302 38.5828 206.685 38.2376 207.603 38.2376C211.277 38.276 214.951 38.276 218.663 38.276C219.198 38.276 219.543 38.4294 219.811 38.928C221.303 41.6127 222.796 44.259 224.288 46.9054C224.479 47.2122 224.518 47.7491 224.977 47.6724C225.398 47.6341 225.513 47.1738 225.704 46.867C227.12 44.2974 228.574 41.6894 229.99 39.1198C230.296 38.5445 230.679 38.2376 231.406 38.2376C235.003 38.3143 238.562 38.3143 242.159 38.276C243.116 38.276 243.422 38.5828 243.384 39.5033C243.345 41.0374 243.384 42.5715 243.46 44.1056C243.498 45.0261 243.231 45.6014 242.274 45.6397C241.547 45.6781 241.317 45.9849 241.317 46.7136C241.355 49.59 241.355 52.4665 241.317 55.343C241.317 56.0717 241.509 56.4552 242.236 56.4935C243.231 56.5319 243.46 57.1072 243.422 58.0276C243.345 59.5618 243.345 61.0959 243.422 62.63C243.46 63.5504 243.154 63.8956 242.197 63.8573C238.6 63.8189 235.041 63.8189 231.444 63.8573C230.564 63.8573 230.411 63.5504 230.411 62.7834C230.449 59.1782 230.411 55.6114 230.411 52.0063C230.258 51.8529 230.143 51.8145 230.028 51.7762Z" fill="#F86549"/>
<path d="M239.289 69.0349C242.083 69.1883 245.565 68.5363 248.971 69.265C254.787 70.4923 258.576 74.2125 258.806 80.5407C258.959 84.4143 258.27 87.9811 255.247 90.7042C252.721 92.967 249.621 93.7724 246.369 94.1943C240.667 94.923 234.926 94.386 229.186 94.5394C228.574 94.5394 228.344 94.3093 228.344 93.6957C228.383 91.8931 228.383 90.0522 228.344 88.2496C228.306 87.3291 228.957 87.1757 229.531 87.1374C230.449 87.0607 230.602 86.5237 230.602 85.795C230.602 83.1103 230.602 80.4256 230.602 77.741C230.602 76.6287 230.487 75.6316 229.033 75.5932C228.421 75.5932 228.383 75.1713 228.383 74.7111C228.383 73.1386 228.421 71.5662 228.383 69.9554C228.344 68.9198 229.033 69.0732 229.645 69.0732C232.669 69.0349 235.654 69.0349 239.289 69.0349ZM241.355 81.4612C241.355 82.1132 241.394 82.8035 241.355 83.4555C241.241 87.4058 241.738 87.751 245.565 86.6771C245.641 86.6388 245.756 86.6004 245.833 86.5621C247.019 86.1402 247.708 85.3348 247.861 84.0692C248.052 82.535 247.938 81.0393 247.899 79.5052C247.823 77.3958 246.981 76.3986 244.838 76.0534C244.149 75.9384 243.422 75.9384 242.695 75.8617C241.585 75.7083 241.279 76.3219 241.317 77.2807C241.394 78.6614 241.355 80.0805 241.355 81.4612Z" fill="#F86549"/>
<path d="M208.636 69.0732C211.698 69.1883 215.946 68.8048 220.079 69.917C222.642 70.6073 224.747 71.988 225.168 74.7494C225.666 77.8944 225.436 81.0393 222.107 82.8802C221.494 83.2254 220.423 83.1103 220.423 83.9157C220.385 84.7595 221.15 85.4115 221.686 86.0635C222.375 86.9072 222.949 87.9044 223.752 88.5948C225.398 90.0138 225.321 91.8547 225.321 93.6957C225.321 94.4244 225.015 94.5778 224.403 94.5778C221.456 94.5394 218.471 94.5394 215.525 94.5778C214.798 94.5778 214.415 94.3093 214.109 93.6573C212.922 91.3178 211.774 88.9783 211.124 86.4087C211.047 86.0635 211.009 85.3731 210.473 85.4882C209.976 85.6033 210.129 86.2169 210.129 86.6388C210.129 88.9016 210.091 91.126 210.129 93.3889C210.167 94.3477 209.784 94.6161 208.866 94.5778C205.384 94.5394 201.901 94.5394 198.381 94.5778C197.347 94.5778 197.08 94.1943 197.118 93.2354C197.194 91.663 197.156 90.0905 197.118 88.4797C197.08 87.7127 197.347 87.2524 198.113 87.2141C199.069 87.1757 199.261 86.5621 199.261 85.795C199.261 83.0336 199.223 80.2339 199.261 77.4725C199.261 76.6287 198.878 76.3603 198.189 76.3219C197.347 76.2452 197.08 75.785 197.118 74.9796C197.156 73.4454 197.194 71.9113 197.118 70.3772C197.08 69.3801 197.424 69.0349 198.419 69.0349C201.404 69.0732 204.465 69.0732 208.636 69.0732ZM210.052 77.204C210.014 77.856 210.091 78.5464 210.014 79.1984C209.899 80.2339 210.32 80.5407 211.315 80.5023C214.721 80.3873 214.874 77.8944 214.147 75.3631C213.841 74.2125 212.042 73.5222 210.703 73.8673C209.555 74.1741 210.244 75.2097 210.052 75.9C209.976 76.3219 210.052 76.7821 210.052 77.204Z" fill="#F86549"/>
<path d="M261.255 64.0874C256.969 64.0107 252.798 63.4354 249.545 60.1754C247.402 58.0277 246.369 55.343 246.177 52.3515C245.948 48.7847 246.254 45.3713 248.626 42.4565C249.927 40.8457 251.535 39.6567 253.41 39.0047C259.456 36.857 265.464 36.8953 271.204 40.117C274.266 41.8428 275.873 44.6426 276.294 48.0943C276.638 50.8941 276.6 53.6938 275.49 56.4169C273.883 60.3288 270.898 62.5149 266.957 63.5505C265.12 64.0107 263.206 64.2025 261.255 64.0874ZM265.656 50.8174C265.694 50.8174 265.732 50.8174 265.732 50.8174C265.694 50.2037 265.732 49.5517 265.617 48.9764C265.235 46.4835 264.087 45.4096 261.561 45.2179C259.456 45.0261 257.734 46.0616 257.198 48.056C256.739 49.7818 256.854 51.5461 257.198 53.2719C257.351 54.039 257.696 54.9211 258.308 55.343C259.877 56.3402 261.599 56.6086 263.359 55.8416C264.928 55.1129 265.464 53.7322 265.617 52.1213C265.694 51.6995 265.656 51.2776 265.656 50.8174Z" fill="#F86549"/>
<path d="M180.203 69.0732C182.193 69.0732 184.222 69.0732 186.211 69.0732C186.9 69.0732 187.245 69.265 187.474 70.0704C188.89 75.0179 190.459 79.9271 191.913 84.8362C192.105 85.4115 192.258 85.9484 192.985 85.9484C194.095 85.9484 194.286 86.6004 194.248 87.5593C194.209 89.4769 194.209 91.3945 194.248 93.3122C194.248 94.1943 194.056 94.5778 193.061 94.5778C190.536 94.5011 188.01 94.5394 185.484 94.5778C184.834 94.5778 184.451 94.5011 184.451 93.6573C184.413 92.8136 184.068 92.0082 183.954 91.1261C183.839 90.3974 183.456 90.1672 182.767 90.2056C181.007 90.2056 179.247 90.2439 177.448 90.2056C176.721 90.2056 176.453 90.5124 176.338 91.1644C176.147 92.2766 176.3 93.8107 175.42 94.3477C174.578 94.8463 173.2 94.5394 172.052 94.5394C170.445 94.5394 168.8 94.5011 167.192 94.5394C166.465 94.5394 166.083 94.4244 166.083 93.5423C166.121 91.4329 166.083 89.3235 166.044 87.2141C166.044 86.4854 166.236 85.9484 167.001 85.9484C168.073 85.9484 168.302 85.2197 168.532 84.4143C169.909 79.6586 171.402 74.9412 172.741 70.2238C173.009 69.3034 173.43 68.9965 174.31 69.0349C176.262 69.0732 178.252 69.0732 180.203 69.0732ZM180.318 75.0946C180.203 75.0946 180.089 75.0946 179.974 75.0946C179.438 77.1657 178.902 79.1984 178.405 81.2694C177.525 84.7211 177.525 84.7211 181.084 84.6444C181.313 84.6444 181.543 84.5677 181.811 84.5677C182.385 84.5294 182.538 84.2226 182.423 83.6856C181.696 80.8092 181.007 77.9711 180.318 75.0946Z" fill="#F86549"/>
<path d="M192.143 63.7422C188.852 63.7422 185.561 63.7039 182.232 63.7806C181.313 63.7806 180.969 63.5504 181.007 62.5916C181.084 61.0192 181.084 59.4467 181.007 57.8359C180.969 56.9538 181.237 56.4552 182.155 56.4168C183.188 56.3785 183.341 55.7649 183.341 54.8827C183.303 52.3131 183.303 49.7051 183.341 47.1355C183.38 46.1767 183.188 45.563 182.079 45.5247C181.237 45.5247 181.007 45.0261 181.045 44.1823C181.122 42.5715 181.122 40.9223 181.045 39.3115C181.007 38.3911 181.351 38.1609 182.193 38.1609C188.929 38.1609 195.664 38.1993 202.399 38.1609C203.241 38.1609 203.47 38.5061 203.432 39.2732C203.394 41.1908 203.432 43.1085 203.432 45.0261C203.432 47.6341 202.552 48.1327 200.179 46.9437C198.802 46.2534 197.386 45.7164 195.855 45.6397C194.056 45.5247 194.056 45.5247 194.056 47.2889C194.056 47.6724 194.056 48.056 194.018 48.4395C193.98 49.3216 194.439 49.5517 195.204 49.3599C196.238 49.1298 197.233 48.8614 198.266 48.6312C198.878 48.4778 199.146 48.6696 199.146 49.3216C199.146 50.4338 199.146 51.5077 199.146 52.6199C199.146 53.1952 198.955 53.502 198.266 53.3103C197.271 53.0035 196.238 52.85 195.204 52.6199C194.554 52.4665 194.095 52.5816 194.095 53.4253C194.133 54.1924 194.018 54.9594 194.018 55.7265C194.018 56.6853 194.783 56.6086 195.358 56.5319C197.08 56.3401 198.725 55.8799 200.218 55.0361C200.638 54.806 201.059 54.6143 201.557 54.5759C203.279 54.4609 203.432 54.5376 203.432 56.3018C203.432 58.3728 203.394 60.4055 203.47 62.4766C203.509 63.4737 203.241 63.7806 202.207 63.7806C198.84 63.7039 195.472 63.7422 192.143 63.7422Z" fill="#F86549"/>
<path d="M272.123 94.8079C269.138 94.8846 266.23 94.6545 263.398 93.5806C262.441 93.1971 262.097 92.6602 262.058 91.8164C261.982 90.5124 262.02 89.2468 262.058 87.9428C262.058 87.0607 262.479 86.6388 263.398 86.7539C263.972 86.8306 264.546 86.8306 265.12 86.7539C266.344 86.6388 267.454 86.7922 268.258 87.9044C268.832 88.6715 269.75 88.9016 270.669 89.0167C272.046 89.1701 273.003 88.4414 273.156 87.0607C273.233 86.3703 273.156 85.9484 272.276 85.8334C270.095 85.5649 267.952 85.1814 265.923 84.2609C262.479 82.6501 260.949 79.6586 261.446 75.5165C261.829 72.4866 264.622 69.6102 267.76 68.9198C272.046 67.9994 276.294 68.2678 280.503 69.265C282.685 69.7636 283.182 70.4923 283.221 72.7935C283.259 76.7054 283.259 76.6671 279.355 76.7054C278.36 76.7054 277.595 76.6287 276.945 75.6316C276.485 74.9412 275.72 74.3659 274.687 74.3276C272.926 74.2125 271.702 75.4015 272.008 77.1273C272.161 78.0478 272.965 77.7793 273.5 77.8177C275.758 77.9327 277.901 78.3546 279.968 79.3518C283.221 80.9242 284.062 83.724 283.986 86.9456C283.833 91.8548 280.197 94.386 275.146 94.8079C274.113 94.8846 273.118 94.8079 272.123 94.8079Z" fill="#F86549"/>
<path d="M163.327 74.2892C163.327 75.3247 163.289 76.3986 163.327 77.4341C163.366 78.2012 163.059 78.4313 162.332 78.3929C161.337 78.3546 160.342 78.3546 159.347 78.3929C158.735 78.3929 158.276 78.2012 157.855 77.7026C156.363 75.8617 154.334 75.5548 152.306 76.3219C150.163 77.0889 149.245 78.9682 149.206 81.1927C149.092 85.6032 151.962 87.8277 156.783 86.9456C158.62 86.6004 160.419 86.2169 162.218 85.7567C163.059 85.5265 163.366 85.7567 163.366 86.6004C163.366 88.403 163.404 90.2439 163.404 92.0465C163.404 92.8136 163.098 93.2738 162.218 93.5039C157.051 94.923 151.885 95.4215 146.681 93.9258C142.012 92.5834 139.104 88.7482 138.53 83.9157C138.147 80.8475 138.3 77.9327 139.563 75.0946C140.941 72.0264 143.39 70.1471 146.451 69.3033C151.732 67.8076 157.013 67.9994 162.179 69.917C163.059 70.2238 163.404 70.684 163.327 71.5662C163.251 72.4866 163.289 73.4071 163.327 74.2892Z" fill="#F86549"/>
<path d="M111.015 90.6275C111.13 92.6985 110.786 94.7312 110.747 96.8022C110.709 98.1829 109.37 99.0267 108.068 98.6432C105.658 97.9145 103.132 98.4898 100.721 97.9145C99.9174 97.7227 99.3434 98.6432 99.6878 99.6403C100.224 101.366 100.032 102.939 99.2669 104.588C98.2719 106.774 96.4733 107.848 94.3686 108.577C93.1058 109.037 91.7664 109.305 90.3505 109.229C87.0977 109.075 83.577 106.045 86.0645 102.095C86.6767 101.136 86.8681 100.062 87.289 99.065C87.4804 98.6048 87.7865 98.1829 87.3273 97.7611C86.8681 97.3392 86.3323 96.879 85.6818 97.2625C84.9164 97.6844 84.1128 97.646 83.3092 97.7227C80.0947 97.9145 76.8802 98.298 73.7039 98.7582C71.3696 99.1034 68.9587 99.1034 66.5861 99.3719C64.7493 99.602 62.8741 99.602 61.0373 99.717C57.6314 99.9088 56.2538 96.879 57.4018 94.6161C58.0906 93.2738 58.5881 91.8164 59.2004 90.4357C59.5066 89.7453 59.5066 89.3235 58.8177 88.8632C55.4502 86.6004 50.858 88.6331 49.7482 92.2383C49.4038 93.3121 50.1309 94.1559 50.3223 95.1531C50.858 98.2597 49.0977 100.139 46.1511 99.717C43.5106 99.3335 40.8701 99.2952 38.2296 98.95C36.278 98.6815 35.6657 98.298 35.6274 96.342C35.6274 94.1176 35.5891 91.8931 35.8953 89.6686C36.0484 88.5181 35.6274 88.1729 34.5559 88.5564C31.4945 89.7453 28.6626 89.2084 26.0604 87.4058C25.2185 86.7922 24.4149 85.8717 23.994 84.9129C22.0423 80.7325 22.6929 77.2807 25.8691 74.2892C28.2417 72.0647 31.3031 71.7196 34.3646 72.9469C35.7805 73.4838 36.0484 73.4454 35.9335 71.9497C35.5891 67.2323 35.2065 62.4766 34.862 57.7592C34.6324 54.4608 34.4794 51.2009 34.2115 47.9025C34.135 46.7519 34.6324 46.1 35.5509 45.6397C36.4693 45.2178 37.3112 45.2178 38.2296 45.7931C40.2195 46.9821 42.4774 46.9437 44.3907 45.9465C46.4955 44.8727 47.2226 42.6866 47.1078 40.2703C46.993 37.2021 43.281 34.7859 40.9084 35.0544C39.6838 35.1694 38.7654 35.9748 37.6173 36.32C35.8953 36.8953 34.2498 36.0515 34.1732 34.2106C33.9819 31.2958 34.0584 28.381 34.4028 25.4662C34.5176 24.5074 35.0917 24.0855 36.1632 24.0088C39.1863 23.817 42.1329 24.6224 45.1178 24.6224C47.3756 24.6224 47.9497 23.817 47.1078 21.7076C46.2659 19.6366 47.1078 17.1437 48.7916 15.3411C51.1259 12.8865 53.996 12.8481 56.9426 13.155C59.2387 13.3851 60.5015 15.763 59.6596 17.9874C59.2769 18.9462 58.8177 19.905 58.3968 20.8639C58.1289 21.4775 57.8993 22.0912 57.8993 22.7815C57.861 24.2773 58.2054 24.6991 59.6979 24.6224C64.3666 24.354 68.997 24.1238 73.6274 23.5869C76.6888 23.2417 79.7885 23.05 82.8882 22.9349C83.9597 22.8966 84.993 22.3596 86.141 22.7815C88.0161 23.4719 88.858 25.6963 87.71 27.3838C86.9064 28.5728 86.5237 29.9535 86.1027 31.2575C85.6052 32.7149 87.0594 34.2106 88.7432 34.4024C91.422 34.7475 93.6798 33.9805 95.708 32.2546C96.856 31.2575 97.43 29.033 96.9325 27.2688C96.3203 25.2361 97.2769 23.3568 99.0373 23.165C99.8026 23.0883 100.568 23.1267 101.333 23.2034C103.591 23.4335 105.849 23.7787 108.107 24.0088C109.102 24.1238 109.637 24.5457 109.599 25.5429C109.446 28.0358 109.829 30.5287 109.37 32.9833C109.255 33.5203 109.408 34.0956 109.829 34.4024C110.211 34.6708 110.632 34.4024 111.015 34.1723C116.181 31.4492 121.96 34.5941 122.381 40.5772C122.572 43.1851 121.462 45.6014 118.898 47.1738C116.028 48.9381 113.311 48.7846 110.479 47.3272C109.561 46.867 109.408 47.519 109.331 48.171C109.178 49.2449 109.37 50.2804 109.599 51.2776C110.135 53.6171 109.944 56.0333 110.058 58.4112C110.288 63.282 111.206 68.1144 111.053 72.9852C110.977 75.133 109.829 75.8617 107.839 74.9795C104.242 73.3687 101.448 74.0207 99.1138 77.0122C97.7744 78.6998 97.7362 82.5734 99.1138 84.2226C101.563 87.2141 104.357 88.0962 107.915 86.2552C109.867 85.2197 111.053 86.0251 111.053 88.2496C111.015 89.1317 111.015 89.8988 111.015 90.6275ZM54.6465 62.8984C53.422 62.8984 52.1591 62.8984 50.9346 62.8984C47.2991 62.8984 43.6637 62.8601 40.0282 62.8601C39.4159 62.8601 38.4975 62.745 38.574 63.7038C38.7654 66.0817 38.5358 68.4596 39.148 70.8375C39.4159 71.8346 39.3394 72.9468 39.2246 73.9824C38.8036 76.9355 36.431 77.7793 33.1783 76.2068C31.8006 75.5548 30.2699 75.4781 29.0453 76.1685C26.5196 77.5492 25.8691 79.2367 26.4048 82.3049C26.711 84.1075 29.1601 85.8334 31.2649 85.7183C32.4512 85.6416 33.4844 85.2581 34.5176 84.7978C37.005 83.6473 38.995 84.9129 38.995 87.6743C38.995 89.8604 39.0332 92.0849 38.9567 94.271C38.9184 95.1914 39.2246 95.6517 40.1813 95.8051C42.0181 96.1503 43.8933 95.8818 45.7301 96.227C46.9547 96.4571 46.8782 95.4599 46.6103 94.7312C46.1511 93.3121 46.1893 91.9314 46.6868 90.5508C47.7201 87.7894 49.7865 86.0251 52.427 85.143C54.4169 84.491 56.5217 84.376 58.6647 85.028C60.9225 85.7183 62.3001 87.1757 62.4915 89.5536C62.6445 91.6246 61.3434 93.1587 60.7311 94.923C60.3102 96.1119 60.3484 96.4571 61.6496 96.3037C64.2135 96.0352 66.8157 96.227 69.4179 95.6133C70.6042 95.3448 70.8339 94.9613 70.8339 93.8874C70.7956 84.7978 70.7956 75.6699 70.8339 66.5803C70.8339 66.1201 70.8338 65.6215 70.9104 65.1613C71.2165 63.397 70.9104 62.9751 69.1501 62.9751C64.29 62.8984 59.4683 62.8984 54.6465 62.8984ZM75.1199 42.7633C75.1199 47.2122 75.1199 51.6611 75.1199 56.11C75.1199 58.718 75.1199 58.718 77.7221 58.6029C77.9134 58.6029 78.1047 58.6029 78.2961 58.6029C87.1742 58.6029 96.0906 58.6029 104.969 58.6029C106.04 58.6029 106.461 58.3728 106.423 57.1839C106.346 54.6143 106.27 52.0446 105.849 49.475C105.428 46.867 106.346 45.2945 108.528 44.0673C110.135 43.1468 111.474 43.9522 112.814 44.6042C114.344 45.3329 115.76 45.3713 117.138 44.2974C118.554 43.1851 119.434 41.8044 118.86 39.9635C117.865 36.6652 114.957 35.9748 112.316 37.4706C109.37 39.1198 106.27 37.7007 106.117 34.3257C106.04 32.4847 105.964 30.6055 106.308 28.7262C106.5 27.6906 106.232 27.077 105.084 27.0387C103.744 27.0003 102.405 26.9619 101.065 26.9236C100.491 26.9236 100.224 27.2304 100.415 27.729C100.836 28.7645 100.453 29.7233 100.185 30.6438C99.2286 33.8654 97.0091 35.8214 93.9476 37.1638C91.001 38.4678 88.284 37.9308 85.6052 36.8953C82.4673 35.668 81.5106 30.7205 83.7684 27.8441C84.0363 27.4989 84.3807 27.2304 84.1511 26.7702C83.9597 26.3483 83.5388 26.3867 83.1561 26.3867C81.0131 26.2332 78.8701 26.6168 76.7271 26.6935C75.5025 26.7318 75.005 27.3071 75.0433 28.6878C75.1581 33.3669 75.1199 38.0459 75.1199 42.7633Z" fill="#F86549"/>
<path d="M54.6465 62.8985C59.4683 62.8985 64.29 62.8985 69.1118 62.8985C70.8721 62.8985 71.14 63.282 70.8721 65.0846C70.7955 65.5448 70.7955 66.0434 70.7955 66.5036C70.7955 75.5932 70.7955 84.7212 70.7955 93.8107C70.7955 94.8846 70.5659 95.2682 69.3796 95.5366C66.8157 96.1503 64.2135 95.9585 61.6113 96.227C60.3102 96.3804 60.2719 96.0736 60.6928 94.8463C61.3051 93.082 62.6445 91.5863 62.4532 89.4769C62.2618 87.1374 60.8459 85.6416 58.6264 84.9513C56.4834 84.2993 54.3786 84.4143 52.3887 85.0663C49.7099 85.9484 47.6435 87.7127 46.6485 90.4741C46.151 91.8548 46.0745 93.2355 46.572 94.6545C46.8399 95.3832 46.8781 96.4187 45.6918 96.1503C43.855 95.8051 41.9798 96.0352 40.143 95.7284C39.1863 95.5366 38.8801 95.1147 38.9184 94.1943C38.9567 92.0082 38.9567 89.7837 38.9567 87.5976C38.9567 84.7979 36.9667 83.5706 34.4793 84.7211C33.4461 85.1814 32.4129 85.5649 31.2266 85.6416C29.1218 85.7567 26.6727 84.0308 26.3665 82.2282C25.8308 79.1984 26.4813 77.5108 29.007 76.0918C30.2316 75.4014 31.7623 75.4781 33.14 76.1301C36.3927 77.7026 38.7653 76.8588 39.1863 73.9057C39.3394 72.8702 39.3776 71.7579 39.1097 70.7608C38.4975 68.4212 38.7653 66.005 38.5357 63.6272C38.4592 62.6683 39.3776 62.7834 39.9899 62.7834C43.6254 62.7834 47.2608 62.7834 50.8963 62.8217C52.1591 62.8985 53.4219 62.8985 54.6465 62.8985Z" fill="#FCBE4A"/>
<path d="M75.1198 42.7633C75.1198 38.0843 75.1964 33.3669 75.0816 28.6878C75.0433 27.3071 75.5408 26.7318 76.7654 26.6935C78.9084 26.6168 81.0131 26.2333 83.1944 26.3867C83.577 26.425 83.998 26.3483 84.1893 26.7702C84.4189 27.2688 84.0745 27.4989 83.8066 27.8441C81.5488 30.6822 82.5055 35.668 85.6435 36.8953C88.3605 37.9308 91.0775 38.4678 93.9859 37.1638C97.0473 35.8214 99.2669 33.8655 100.224 30.6438C100.491 29.7234 100.912 28.7645 100.453 27.729C100.262 27.2304 100.53 26.8853 101.104 26.9236C102.443 26.962 103.782 27.0003 105.122 27.0387C106.27 27.077 106.538 27.6907 106.346 28.7262C106.04 30.5671 106.079 32.4464 106.155 34.3257C106.308 37.7007 109.408 39.1198 112.354 37.4706C114.995 36.0132 117.942 36.7036 118.898 39.9635C119.472 41.8045 118.592 43.1852 117.176 44.2974C115.799 45.3713 114.383 45.3329 112.852 44.6042C111.513 43.9522 110.211 43.1852 108.566 44.0673C106.346 45.2946 105.466 46.8287 105.887 49.475C106.308 52.0446 106.385 54.6143 106.461 57.1839C106.5 58.3728 106.079 58.603 105.007 58.603C96.1289 58.5646 87.2125 58.603 78.3343 58.603C78.143 58.603 77.9517 58.603 77.7603 58.603C75.1581 58.6797 75.1581 58.6797 75.1581 56.11C75.1198 51.6611 75.1198 47.2122 75.1198 42.7633Z" fill="#FCBE4A"/>
</svg>
